<svg width="32" height="21" viewBox="0 0 32 21" fill="none" xmlns="http://www.w3.org/2000/svg">
<path d="M10.3586 15.5175C17.6556 22.43 24.8106 22.1774 30.1331 15.5175C35.4557 8.85762 27.4813 0.512419 29.6431 0H11.6755L10.3586 15.5175Z" fill="white"/>
<path d="M10.3586 0C-7.16009 6.76195 0.819299 13.9355 10.3586 15.5175C1.02598 9.44428 -0.425034 5.38859 11.6755 0H10.3586Z" fill="white"/>
<ellipse cx="14.3655" cy="9.34364" rx="2.11762" ry="1.06814" transform="rotate(12.2781 14.3655 9.34364)" fill="#F46C40"/>
<ellipse cx="18.5857" cy="9.34161" rx="2.11762" ry="1.06814" transform="rotate(-22.4261 18.5857 9.34161)" fill="#F46C40"/>
<ellipse cx="19.0574" cy="11.4605" rx="2.11762" ry="1.06814" transform="rotate(28.1551 19.0574 11.4605)" fill="#F46C40"/>
<ellipse cx="17.6949" cy="12.5725" rx="2.11762" ry="1.06814" transform="rotate(-102.839 17.6949 12.5725)" fill="#F46C40"/>
<ellipse cx="17.3308" cy="8.04781" rx="2.11762" ry="1.06814" transform="rotate(91.1547 17.3308 8.04781)" fill="#F46C40"/>
<ellipse cx="15.5411" cy="12.4828" rx="2.11762" ry="1.06814" transform="rotate(-42.1091 15.5411 12.4828)" fill="#F46C40"/>
<ellipse cx="15.5416" cy="8.05035" rx="2.11762" ry="1.06814" transform="rotate(51.6024 15.5416 8.05035)" fill="#F46C40"/>
<ellipse cx="14.3656" cy="10.9668" rx="2.11762" ry="1.06814" transform="rotate(-12.9494 14.3656 10.9668)" fill="#F46C40"/>
<circle cx="16.6636" cy="10.3731" r="1.03082" fill="#AD4321"/>
<ellipse rx="1.53444" ry="3.49144" transform="matrix(-0.0427515 -0.999086 -0.999086 0.0427515 26.2235 12.7898)" fill="#A82D06"/>
<path d="M28.4727 12.9206C30.1966 13.3879 28.4422 12.2086 28.4422 12.2086C26.5156 11.5343 25.6165 12.5017 23.9589 12.4004C22.3014 12.2992 23.9776 12.8377 23.9894 13.1124C24.0011 13.3871 26.7488 12.4532 28.4727 12.9206Z" fill="#731F04"/>
<path d="M24.9136 4.14321C25.4935 2.48737 24.7252 4.29612 24.7252 4.29612C23.8989 6.14632 25.0161 7.01315 24.8665 8.60622C24.717 10.1993 24.6905 8.47496 25.0127 8.4644C25.3348 8.45383 24.3338 5.79906 24.9136 4.14321Z" fill="#C86B4D"/>
<path d="M26.3013 4.13906C26.8812 2.48322 26.1129 4.29197 26.1129 4.29197C25.2866 6.14217 26.4038 7.009 26.2542 8.60207C26.1047 10.1951 26.0782 8.47081 26.4004 8.46025C26.7225 8.44968 25.7215 5.79491 26.3013 4.13906Z" fill="#C86B4D"/>
<path d="M27.5278 4.3124C26.9479 2.65656 27.7162 4.46531 27.7162 4.46531C28.5425 6.31551 27.4253 7.18234 27.5749 8.77541C27.7244 10.3685 27.7509 8.64415 27.4287 8.63358C27.1066 8.62302 28.1076 5.96825 27.5278 4.3124Z" fill="#C86B4D"/>
</svg>
